<svg width="26" height="33" viewBox="0 0 26 33" fill="none" xmlns="http://www.w3.org/2000/svg">
<path d="M3.39062 5.52441H0.641602V4.38672H3.39062V5.52441ZM9.33789 8H4.46484V7.0332L6.76465 4.58203C7.0804 4.23698 7.31315 3.93587 7.46289 3.67871C7.61589 3.42155 7.69238 3.17741 7.69238 2.94629C7.69238 2.63053 7.61263 2.38314 7.45312 2.2041C7.29362 2.02181 7.06576 1.93066 6.76953 1.93066C6.45052 1.93066 6.19824 2.04134 6.0127 2.2627C5.8304 2.48079 5.73926 2.76888 5.73926 3.12695H4.32324C4.32324 2.69401 4.42578 2.2985 4.63086 1.94043C4.83919 1.58236 5.13216 1.30241 5.50977 1.10059C5.88737 0.895508 6.31543 0.792969 6.79395 0.792969C7.52637 0.792969 8.0944 0.96875 8.49805 1.32031C8.90495 1.67188 9.1084 2.16829 9.1084 2.80957C9.1084 3.16113 9.01725 3.51921 8.83496 3.88379C8.65267 4.24837 8.34017 4.67318 7.89746 5.1582L6.28125 6.8623H9.33789V8ZM14.9922 5.06055C14.9922 6.04362 14.7887 6.79557 14.3818 7.31641C13.9749 7.83724 13.3792 8.09766 12.5947 8.09766C11.82 8.09766 11.2275 7.84212 10.8174 7.33105C10.4072 6.81999 10.1973 6.08757 10.1875 5.13379V3.8252C10.1875 2.83236 10.3926 2.07878 10.8027 1.56445C11.2161 1.05013 11.8102 0.792969 12.585 0.792969C13.3597 0.792969 13.9521 1.0485 14.3623 1.55957C14.7725 2.06738 14.9824 2.79818 14.9922 3.75195V5.06055ZM13.5811 3.625C13.5811 3.03581 13.4997 2.60775 13.3369 2.34082C13.1774 2.07064 12.9268 1.93555 12.585 1.93555C12.2529 1.93555 12.0072 2.06413 11.8477 2.32129C11.6914 2.5752 11.6084 2.97396 11.5986 3.51758V5.24609C11.5986 5.82552 11.6768 6.25684 11.833 6.54004C11.9925 6.81999 12.2464 6.95996 12.5947 6.95996C12.9398 6.95996 13.1888 6.82487 13.3418 6.55469C13.4948 6.28451 13.5745 5.87109 13.5811 5.31445V3.625ZM16.0811 2.14062C16.0811 1.76953 16.2129 1.45215 16.4766 1.18848C16.7402 0.924805 17.0511 0.792969 17.4092 0.792969C17.764 0.792969 18.07 0.924805 18.3271 1.18848C18.5876 1.44889 18.7178 1.76628 18.7178 2.14062C18.7178 2.51497 18.5876 2.83073 18.3271 3.08789C18.07 3.3418 17.764 3.46875 17.4092 3.46875C17.0576 3.46875 16.7484 3.3418 16.4814 3.08789C16.2145 2.83073 16.0811 2.51497 16.0811 2.14062ZM17.4092 2.74609C17.5817 2.74609 17.7233 2.68913 17.834 2.5752C17.9479 2.45801 18.0049 2.31315 18.0049 2.14062C18.0049 1.97135 17.9479 1.82487 17.834 1.70117C17.7233 1.57747 17.5817 1.51562 17.4092 1.51562C17.2367 1.51562 17.0918 1.57747 16.9746 1.70117C16.8574 1.82487 16.7988 1.97135 16.7988 2.14062C16.7988 2.3099 16.8574 2.45312 16.9746 2.57031C17.0951 2.6875 17.2399 2.74609 17.4092 2.74609ZM25.5684 5.63184C25.513 6.39681 25.2298 6.99902 24.7188 7.43848C24.2109 7.87793 23.5404 8.09766 22.707 8.09766C21.7956 8.09766 21.0778 7.79167 20.5537 7.17969C20.0329 6.56445 19.7725 5.72135 19.7725 4.65039V4.21582C19.7725 3.53223 19.8929 2.93001 20.1338 2.40918C20.3747 1.88835 20.7181 1.48958 21.1641 1.21289C21.6133 0.932943 22.1341 0.792969 22.7266 0.792969C23.5469 0.792969 24.2077 1.0127 24.709 1.45215C25.2103 1.8916 25.5 2.50846 25.5781 3.30273H24.1133C24.0775 2.84375 23.9489 2.51172 23.7275 2.30664C23.5094 2.09831 23.1758 1.99414 22.7266 1.99414C22.2383 1.99414 21.8721 2.16992 21.6279 2.52148C21.387 2.86979 21.2633 3.41178 21.2568 4.14746V4.68457C21.2568 5.4528 21.3724 6.01432 21.6035 6.36914C21.8379 6.72396 22.2057 6.90137 22.707 6.90137C23.1595 6.90137 23.4964 6.79883 23.7178 6.59375C23.9424 6.38542 24.071 6.06478 24.1035 5.63184H25.5684ZM10.7881 13.418V14.7168H11.6914V15.752H10.7881V18.3887C10.7881 18.584 10.8255 18.724 10.9004 18.8086C10.9753 18.8932 11.1185 18.9355 11.3301 18.9355C11.4863 18.9355 11.6247 18.9242 11.7451 18.9014V19.9707C11.4684 20.0553 11.1836 20.0977 10.8906 20.0977C9.90104 20.0977 9.39648 19.598 9.37695 18.5986V15.752H8.60547V14.7168H9.37695V13.418H10.7881ZM12.1113 17.3096C12.1113 16.7855 12.2122 16.3184 12.4141 15.9082C12.6159 15.498 12.9056 15.1807 13.2832 14.9561C13.6641 14.7314 14.1051 14.6191 14.6064 14.6191C15.3193 14.6191 15.9004 14.8372 16.3496 15.2734C16.8021 15.7096 17.0544 16.3021 17.1064 17.0508L17.1162 17.4121C17.1162 18.2227 16.89 18.8737 16.4375 19.3652C15.985 19.8535 15.3779 20.0977 14.6162 20.0977C13.8545 20.0977 13.2458 19.8535 12.79 19.3652C12.3376 18.877 12.1113 18.2129 12.1113 17.373V17.3096ZM13.5225 17.4121C13.5225 17.9134 13.6169 18.2975 13.8057 18.5645C13.9945 18.8281 14.2646 18.96 14.6162 18.96C14.958 18.96 15.2249 18.8298 15.417 18.5693C15.609 18.3057 15.7051 17.8857 15.7051 17.3096C15.7051 16.818 15.609 16.4372 15.417 16.167C15.2249 15.8968 14.9548 15.7617 14.6064 15.7617C14.2614 15.7617 13.9945 15.8968 13.8057 16.167C13.6169 16.4339 13.5225 16.849 13.5225 17.4121ZM2.73633 28.5039L3.14648 24.8906H7.13086V26.0674H4.30371L4.12793 27.5957C4.46322 27.4167 4.81966 27.3271 5.19727 27.3271C5.87435 27.3271 6.40495 27.5371 6.78906 27.957C7.17318 28.377 7.36523 28.9645 7.36523 29.7197C7.36523 30.1787 7.26758 30.5905 7.07227 30.9551C6.88021 31.3164 6.60352 31.598 6.24219 31.7998C5.88086 31.9984 5.45443 32.0977 4.96289 32.0977C4.5332 32.0977 4.13444 32.0114 3.7666 31.8389C3.39876 31.6631 3.10742 31.4173 2.89258 31.1016C2.68099 30.7858 2.56868 30.4261 2.55566 30.0225H3.95215C3.98145 30.3187 4.08398 30.5498 4.25977 30.7158C4.4388 30.8786 4.67155 30.96 4.95801 30.96C5.27702 30.96 5.52279 30.846 5.69531 30.6182C5.86784 30.387 5.9541 30.0615 5.9541 29.6416C5.9541 29.238 5.85482 28.9287 5.65625 28.7139C5.45768 28.499 5.17611 28.3916 4.81152 28.3916C4.47624 28.3916 4.20443 28.4795 3.99609 28.6553L3.85938 28.7822L2.73633 28.5039ZM8.47852 28.5039L8.88867 24.8906H12.873V26.0674H10.0459L9.87012 27.5957C10.2054 27.4167 10.5618 27.3271 10.9395 27.3271C11.6165 27.3271 12.1471 27.5371 12.5312 27.957C12.9154 28.377 13.1074 28.9645 13.1074 29.7197C13.1074 30.1787 13.0098 30.5905 12.8145 30.9551C12.6224 31.3164 12.3457 31.598 11.9844 31.7998C11.623 31.9984 11.1966 32.0977 10.7051 32.0977C10.2754 32.0977 9.87663 32.0114 9.50879 31.8389C9.14095 31.6631 8.84961 31.4173 8.63477 31.1016C8.42318 30.7858 8.31087 30.4261 8.29785 30.0225H9.69434C9.72363 30.3187 9.82617 30.5498 10.002 30.7158C10.181 30.8786 10.4137 30.96 10.7002 30.96C11.0192 30.96 11.265 30.846 11.4375 30.6182C11.61 30.387 11.6963 30.0615 11.6963 29.6416C11.6963 29.238 11.597 28.9287 11.3984 28.7139C11.1999 28.499 10.9183 28.3916 10.5537 28.3916C10.2184 28.3916 9.94661 28.4795 9.73828 28.6553L9.60156 28.7822L8.47852 28.5039ZM14.1426 26.1406C14.1426 25.7695 14.2744 25.4521 14.5381 25.1885C14.8018 24.9248 15.1126 24.793 15.4707 24.793C15.8255 24.793 16.1315 24.9248 16.3887 25.1885C16.6491 25.4489 16.7793 25.7663 16.7793 26.1406C16.7793 26.515 16.6491 26.8307 16.3887 27.0879C16.1315 27.3418 15.8255 27.4688 15.4707 27.4688C15.1191 27.4688 14.8099 27.3418 14.543 27.0879C14.276 26.8307 14.1426 26.515 14.1426 26.1406ZM15.4707 26.7461C15.6432 26.7461 15.7848 26.6891 15.8955 26.5752C16.0094 26.458 16.0664 26.3132 16.0664 26.1406C16.0664 25.9714 16.0094 25.8249 15.8955 25.7012C15.7848 25.5775 15.6432 25.5156 15.4707 25.5156C15.2982 25.5156 15.1533 25.5775 15.0361 25.7012C14.9189 25.8249 14.8604 25.9714 14.8604 26.1406C14.8604 26.3099 14.9189 26.4531 15.0361 26.5703C15.1566 26.6875 15.3014 26.7461 15.4707 26.7461ZM23.6299 29.6318C23.5745 30.3968 23.2913 30.999 22.7803 31.4385C22.2725 31.8779 21.6019 32.0977 20.7686 32.0977C19.8571 32.0977 19.1393 31.7917 18.6152 31.1797C18.0944 30.5645 17.834 29.7214 17.834 28.6504V28.2158C17.834 27.5322 17.9544 26.93 18.1953 26.4092C18.4362 25.8883 18.7796 25.4896 19.2256 25.2129C19.6748 24.9329 20.1956 24.793 20.7881 24.793C21.6084 24.793 22.2692 25.0127 22.7705 25.4521C23.2718 25.8916 23.5615 26.5085 23.6396 27.3027H22.1748C22.139 26.8438 22.0104 26.5117 21.7891 26.3066C21.571 26.0983 21.2373 25.9941 20.7881 25.9941C20.2998 25.9941 19.9336 26.1699 19.6895 26.5215C19.4486 26.8698 19.3249 27.4118 19.3184 28.1475V28.6846C19.3184 29.4528 19.4339 30.0143 19.665 30.3691C19.8994 30.724 20.2673 30.9014 20.7686 30.9014C21.221 30.9014 21.5579 30.7988 21.7793 30.5938C22.0039 30.3854 22.1325 30.0648 22.165 29.6318H23.6299Z" fill="white"/>
</svg>
