<svg width="46" height="52" viewBox="0 0 46 52" fill="none" xmlns="http://www.w3.org/2000/svg">
<g clip-path="url(#clip0)">
<path d="M44.1745 5.24725H1.8255C0.817269 5.24725 0 6.17111 0 7.31086V30.3574V32.3916V44.6893C0 45.8289 0.817269 46.7529 1.8255 46.7529H44.1747C45.1827 46.7529 46.0002 45.829 46.0002 44.6893V32.3916V30.3574V7.31086C46 6.17111 45.1826 5.24725 44.1745 5.24725ZM8.96396 33.3143H5.34877V36.0687H8.5879V36.9309H5.34877V40.2896H4.55702V32.4522H8.96412V33.3143H8.96396ZM15.7986 37.0649C15.7986 39.1027 14.7091 40.3347 12.8964 40.3347C11.0739 40.3347 9.97473 39.1027 9.97473 37.0649V32.4522H10.7671V37.0649C10.7671 38.5877 11.5788 39.4725 12.8964 39.4725C14.2138 39.4725 15.0062 38.5877 15.0062 37.0649V32.4522H15.7986V37.0649ZM21.5735 40.2896H17.7403V32.4522H18.5327V39.4394H21.5735V40.2896ZM26.6946 40.2896H22.8613V32.4522H23.6534V39.4394H26.6944V40.2896H26.6946ZM34.024 40.2896H32.2608V37.2444H29.389V40.2896H27.6256V32.4522H29.389V35.6769H32.2608V32.4522H34.024V40.2896ZM38.3233 40.2896H35.4112V35.7749H37.1742V38.7004H38.4322C39.5118 38.7004 40.2845 37.7591 40.2845 36.3824C40.2845 34.9932 39.4722 34.0421 38.353 34.0421H35.4112V32.4522H38.3926C40.5717 32.4522 42.0769 34.0421 42.0769 36.3707C42.0769 38.6884 40.5515 40.2896 38.3233 40.2896ZM42.3492 28.2938H3.65085V9.37429H42.3492V28.2938Z" fill="#FFFBFB"/>
<path d="M16.9178 25.6784H19.9495V22.4796H21.6948V19.6759H19.9495V16.5603H16.9178V19.6759H14.1987L18.0202 11.1395H14.8784L10.8179 20.0084V22.4796H16.9178V25.6784Z" fill="#FFFBFB"/>
<path d="M26.5093 22.106L28.218 19.9666L31.617 25.6784H35.5305L30.4411 17.1626L35.2182 11.1395H31.4333L26.5093 17.4328V11.1395H23.2388V25.6784H26.5093V22.106Z" fill="#FFFBFB"/>
</g>
<defs>
<clipPath id="clip0">
<rect width="46" height="52" fill="white"/>
</clipPath>
</defs>
</svg>
