<svg width="62" height="58" viewBox="0 0 62 58" fill="none" xmlns="http://www.w3.org/2000/svg">
<g clip-path="url(#clip0)">
<path d="M54.8958 36.8542V39.2708C54.8958 41.9412 52.5837 44.1042 49.7292 44.1042H7.10417C4.24958 44.1042 1.9375 41.9412 1.9375 39.2708V16.3125C1.9375 13.6421 4.24958 11.4792 7.10417 11.4792H49.7292C52.5837 11.4792 54.8958 13.6421 54.8958 16.3125V18.7292H57.4792C58.9052 18.7292 60.0625 19.8118 60.0625 21.1458V34.4375C60.0625 35.7715 58.9052 36.8542 57.4792 36.8542H54.8958Z" fill="#232323"/>
<path d="M26.443 46.69C26.2208 46.69 25.9935 46.6465 25.7817 46.5547C25.11 46.2622 24.7458 45.5735 24.9059 44.8968L27.7579 32.9319H21.08C20.4858 32.9319 19.9433 32.6202 19.6747 32.1223C19.406 31.6269 19.4603 31.03 19.8116 30.5829L34.4953 11.9093C34.9344 11.3462 35.7378 11.1481 36.4198 11.4429C37.0993 11.7329 37.4661 12.4313 37.2982 13.1128L34.3713 25.0681H41.5633C42.1626 25.0681 42.7077 25.3847 42.9738 25.8849C43.2398 26.3876 43.1804 26.9869 42.8188 27.4316L27.6959 46.1052C27.3937 46.4846 26.9261 46.69 26.443 46.69Z" fill="#7B9CFF"/>
<path d="M49.7292 45.9167H37.4584C36.3889 45.9167 35.5209 45.1047 35.5209 44.1042C35.5209 43.1037 36.3889 42.2917 37.4584 42.2917H49.7292C51.5091 42.2917 52.9584 40.9359 52.9584 39.2708V36.8542C52.9584 35.8537 53.8264 35.0417 54.8959 35.0417H57.456C57.8125 35.0417 58.1018 34.771 58.1018 34.4375V21.1458C58.1018 20.8123 57.8125 20.5417 57.456 20.5417H54.8959C53.8264 20.5417 52.9584 19.7297 52.9584 18.7292V16.3125C52.9584 14.6474 51.5091 13.2917 49.7292 13.2917H42.625C41.5555 13.2917 40.6875 12.4797 40.6875 11.4792C40.6875 10.4787 41.5555 9.66665 42.625 9.66665H49.7292C53.6455 9.66665 56.8334 12.6464 56.8334 16.3125V16.9167H57.456C59.9489 16.9167 61.9768 18.8137 61.9768 21.1458V34.4375C61.9768 36.7696 59.9489 38.6667 57.456 38.6667H56.8334V39.2708C56.8334 42.9369 53.6455 45.9167 49.7292 45.9167Z" fill="white"/>
<path d="M16.7917 45.9167H7.10417C3.18525 45.9167 0 42.9369 0 39.2708V16.3125C0 12.6464 3.18525 9.66665 7.10417 9.66665H24.5417C25.6112 9.66665 26.4792 10.4787 26.4792 11.4792C26.4792 12.4797 25.6112 13.2917 24.5417 13.2917H7.10417C5.32425 13.2917 3.875 14.6474 3.875 16.3125V39.2708C3.875 40.9359 5.32425 42.2917 7.10417 42.2917H16.7917C17.8612 42.2917 18.7292 43.1037 18.7292 44.1042C18.7292 45.1047 17.8612 45.9167 16.7917 45.9167Z" fill="white"/>
<path d="M25.3244 50.75C25.0506 50.75 24.7742 50.6968 24.5107 50.5832C23.684 50.2256 23.2371 49.3749 23.4334 48.5436L26.9416 33.8333H18.7292C17.9981 33.8333 17.329 33.4491 17.0009 32.8377C16.6728 32.2287 16.7348 31.4964 17.1688 30.9454L35.2238 7.98708C35.7663 7.29349 36.7557 7.05183 37.5927 7.41433C38.4271 7.77199 38.8792 8.62749 38.6725 9.46608L35.0739 24.1667H43.9167C44.6529 24.1667 45.3246 24.5557 45.6501 25.172C45.9782 25.7882 45.9033 26.5253 45.4589 27.0739L26.8667 50.0322C26.4921 50.4963 25.916 50.75 25.3244 50.75ZM22.5603 30.2083H29.3596C29.9486 30.2083 30.504 30.4597 30.8708 30.8874C31.2377 31.3176 31.3772 31.8782 31.248 32.4147L29.1503 41.209L40.0158 27.7917H32.6404C32.0488 27.7917 31.4934 27.5403 31.1266 27.1077C30.7572 26.6752 30.6203 26.1121 30.752 25.5732L32.8083 17.1752L22.5603 30.2083Z" fill="white"/>
</g>
<defs>
<clipPath id="clip0">
<rect width="62" height="58" fill="white"/>
</clipPath>
</defs>
</svg>
