<svg width="50" height="41" viewBox="0 0 50 41" fill="none" xmlns="http://www.w3.org/2000/svg">
<path d="M2.21795 19.2242C-0.0250972 21.6126 0.517085 25.0406 3.43073 26.8805C4.59683 27.6168 6.02699 28.0157 7.49876 28.0143H39.1498C39.433 28.0143 39.7079 28.0075 39.9827 27.987C45.4841 27.6176 49.5797 23.6616 49.129 19.1498C48.7042 14.8913 44.3605 11.615 39.1498 11.6225C38.0087 11.6198 36.8759 11.7796 35.8015 12.0938C35.8098 11.9367 35.8182 11.7796 35.8182 11.6225C35.8182 7.79842 32.5939 4.4825 28.047 3.63144C27.8721 3.59732 27.6888 3.56994 27.5056 3.54944C27.2474 3.50844 26.9892 3.48113 26.7227 3.46063C26.4228 3.44013 26.123 3.42652 25.8231 3.42652C23.1344 3.4238 20.5582 4.31033 18.6766 5.88529C18.0436 6.40916 17.5046 7.0047 17.0774 7.65428C17.0665 7.67406 17.0524 7.69256 17.0358 7.7089V7.7157C16.6951 8.22251 16.4244 8.75799 16.2279 9.31389C16.0621 9.78514 15.948 10.2674 15.8864 10.755C15.8455 11.0432 15.8264 11.3329 15.8281 11.6224C15.8264 11.9789 15.8539 12.3348 15.9114 12.6879C15.0868 12.4311 14.2114 12.3021 13.3293 12.3055C12.2106 12.3062 11.107 12.5111 10.0976 12.9066C9.77188 13.037 9.45792 13.1852 9.15636 13.3505C8.97814 13.4455 8.80822 13.55 8.64826 13.6646C8.36427 13.8483 8.09689 14.0498 7.84865 14.2657C7.60881 14.4726 7.38889 14.694 7.19065 14.9282C6.59759 15.6187 6.18695 16.4021 5.98295 17.2299C5.50151 17.3214 5.03423 17.4586 4.59195 17.6397C4.04967 17.8562 3.54499 18.1322 3.09265 18.4593C2.76941 18.6887 2.47625 18.9449 2.21795 19.2242Z" fill="white"/>
<path d="M5.98272 17.2298C6.18682 16.402 6.59746 15.6186 7.19043 14.9281C7.38867 14.6938 7.60859 14.4726 7.84843 14.2657C8.09667 14.0498 8.36405 13.8484 8.64803 13.6646C8.80799 13.5498 8.97791 13.4453 9.15613 13.3505C9.45769 13.1852 9.77165 13.0369 10.0973 12.9065C11.1068 12.5111 12.2105 12.3062 13.329 12.3054C14.2111 12.302 15.0865 12.4311 15.9111 12.6879C15.8536 12.3348 15.8262 11.979 15.8278 11.6224C15.8262 11.3328 15.8453 11.0432 15.8861 10.755C15.9478 10.2673 16.0619 9.78517 16.2276 9.31383C16.4242 8.75786 16.6949 8.22238 17.0355 7.71565V7.70884C17.0522 7.69243 17.0664 7.67401 17.0771 7.65423C17.5044 7.00472 18.0433 6.40911 18.6763 5.88524C20.558 4.31028 23.1341 3.42374 25.8229 3.42647C26.1227 3.42647 26.4226 3.44016 26.7225 3.46058C26.989 3.48108 27.2472 3.50839 27.5054 3.54939C25.757 0.900027 21.7208 -0.0854847 18.4898 1.34742C16.5225 2.22026 15.2214 3.84583 15.0282 5.67352C14.0479 5.0964 12.8702 4.7877 11.6632 4.79243C8.43651 4.79787 5.82608 6.94659 5.83282 9.5925C5.8337 10.0508 5.91524 10.5071 6.07432 10.9462C5.99434 10.94 5.91358 10.938 5.83282 10.9394C3.0725 10.9435 0.839413 12.7821 0.844491 15.0449C0.847811 16.4197 1.69155 17.7024 3.09252 18.4592C3.54476 18.1321 4.04954 17.8562 4.59182 17.6396C5.0341 17.4586 5.50138 17.3213 5.98272 17.2298Z" fill="#7B9CFF"/>
<path d="M24.99 40.3083C27.2897 40.3083 29.1547 38.7791 29.1547 36.8933C29.1547 35.0076 24.99 30.7463 24.99 30.7463C24.99 30.7463 20.8254 35.0076 20.8254 36.8933C20.8254 38.7791 22.6895 40.3083 24.99 40.3083Z" fill="#7B9CFF"/>
<path d="M13.3292 40.3083C15.6288 40.3083 17.4938 38.7791 17.4938 36.8933C17.4938 35.0076 13.3292 30.7463 13.3292 30.7463C13.3292 30.7463 9.16455 35.0076 9.16455 36.8933C9.16455 38.7791 11.0286 40.3083 13.3292 40.3083Z" fill="#7B9CFF"/>
<path d="M32.4863 36.8933C32.4863 38.7791 34.3512 40.3083 36.6509 40.3083C38.9506 40.3083 40.8155 38.7791 40.8155 36.8933C40.8155 35.0076 36.6509 30.7463 36.6509 30.7463C36.6509 30.7463 32.4863 35.0076 32.4863 36.8933Z" fill="#7B9CFF"/>
<path d="M39.1497 10.9397C38.3035 10.9383 37.4606 11.0189 36.6368 11.1787C36.3711 7.21599 32.9503 3.87132 28.2384 2.96701C28.1626 2.95195 28.086 2.9397 28.0102 2.92737C25.8479 0.0445052 21.2444 -0.855004 17.7286 0.918069C16.086 1.74655 14.8983 3.06334 14.4119 4.5933C11.0552 3.3509 7.10553 4.57488 5.59041 7.3273C5.20145 8.0335 5.00067 8.79912 4.99989 9.57371C4.99989 9.81618 5.01903 10.0587 5.05741 10.299C1.87151 10.6439 -0.369878 13.0406 0.0507231 15.653C0.227284 16.7519 0.865363 17.7662 1.85481 18.5209C1.75403 18.6159 1.64993 18.7094 1.55832 18.8091C0.545445 19.8794 -0.00181543 21.1962 0.00238374 22.5506C0.00736416 25.9437 3.36075 28.6935 7.49869 28.6975H39.1497C39.4587 28.6975 39.7586 28.69 40.051 28.6681C46.0114 28.2699 50.4492 23.9848 49.9636 19.0973C49.5046 14.4816 44.7969 10.9301 39.1497 10.9397ZM5.83279 11.6226H5.89773C5.92517 11.6213 5.9535 11.6213 5.98103 11.6226C6.43835 11.6629 6.8489 11.3918 6.8989 11.0169C6.91052 10.9267 6.90056 10.8359 6.86892 10.7492C6.73317 10.3674 6.66482 9.97121 6.6657 9.57371C6.66823 7.3116 8.90464 5.47775 11.6632 5.47575C12.6952 5.47095 13.703 5.73392 14.5418 6.22704C14.9149 6.44693 15.4355 6.37726 15.7046 6.07129C15.7921 5.97159 15.8453 5.85412 15.8578 5.73112C16.1509 3.16168 18.8664 1.24174 22.0089 1.3818C23.4132 1.44738 24.74 1.93161 25.7395 2.74367C25.6871 2.74367 25.6354 2.75048 25.5829 2.7512H25.5487C25.1622 2.75937 24.7758 2.78467 24.3926 2.82631L24.3442 2.83248C23.9711 2.87412 23.6004 2.93153 23.2348 3.00528L23.1656 3.01962C22.8125 3.09273 22.4651 3.17945 22.1244 3.28051L22.0203 3.3119C21.6988 3.41096 21.3831 3.52154 21.0741 3.6459L20.9242 3.70532C20.6377 3.82416 20.3587 3.95532 20.0855 4.0953C20.0222 4.12805 19.958 4.15744 19.8948 4.19091C19.6382 4.32752 19.3892 4.47983 19.1452 4.63694C19.0786 4.6793 19.0094 4.7175 18.9444 4.76122C18.6437 4.9627 18.3563 5.17786 18.0832 5.40464C17.3943 5.97495 16.8088 6.6231 16.344 7.3293V7.32522L16.3374 7.33338C16.3124 7.3655 16.2907 7.39825 16.2716 7.43308C15.9176 7.96856 15.6344 8.53406 15.4269 9.11943C15.2478 9.62624 15.1237 10.1453 15.058 10.6698C15.013 10.986 14.9914 11.3043 14.9947 11.6226C14.9947 11.6683 14.9947 11.7141 14.9947 11.7592C13.2164 11.4669 11.3698 11.654 9.73148 12.2926C9.3725 12.4367 9.02602 12.5999 8.6937 12.7822C8.49546 12.8867 8.30718 13.0029 8.12984 13.1299C7.81666 13.3321 7.52184 13.5527 7.2486 13.791C6.97878 14.0225 6.73132 14.2711 6.50896 14.5341C5.95174 15.1843 5.53778 15.9097 5.28622 16.6766C4.9206 16.7675 4.56493 16.8843 4.22343 17.0256C3.86191 17.1738 3.51465 17.3459 3.18565 17.5385C3.15069 17.5583 3.10899 17.5726 3.07491 17.5931C1.35325 16.3418 1.19505 14.1836 2.72013 12.7726C3.50977 12.042 4.64257 11.6234 5.83279 11.6226ZM39.906 27.307C39.6561 27.3261 39.4063 27.3316 39.1496 27.3316H7.49869C4.28027 27.3289 1.6716 25.1897 1.66828 22.5506C1.66575 21.4947 2.09309 20.4689 2.88273 19.6356C3.10841 19.3925 3.36417 19.1698 3.64571 18.9697C4.04551 18.6815 4.49111 18.4383 4.97001 18.2478C5.35399 18.0907 5.75965 17.9718 6.17771 17.8933C6.49177 17.8311 6.73415 17.6248 6.79821 17.3653C6.98063 16.6311 7.34547 15.9351 7.87017 15.3218C8.04595 15.1135 8.24078 14.9161 8.45318 14.7324C8.6856 14.5309 8.93628 14.3438 9.20278 14.173C9.33442 14.0801 9.47348 13.9954 9.61928 13.9183C9.88578 13.7714 10.164 13.639 10.4522 13.5229C10.6629 13.4416 10.8786 13.3692 11.0986 13.3057C11.2652 13.2585 11.4318 13.221 11.5933 13.1848C11.6457 13.1732 11.6974 13.1581 11.7498 13.1479C11.9264 13.113 12.1038 13.0871 12.282 13.0639C12.3304 13.0577 12.3786 13.0488 12.4278 13.0434C12.5878 13.0256 12.7485 13.0154 12.9084 13.0072C12.9917 13.0031 13.0684 12.9977 13.1482 12.9963C13.3048 12.9922 13.4598 12.9963 13.6146 12.9963C13.6704 12.9963 13.7263 12.9963 13.7812 13.0025C13.9361 13.0106 14.0894 13.025 14.2419 13.0421C14.2994 13.0483 14.3577 13.053 14.4143 13.0605C14.5709 13.0817 14.725 13.1104 14.8783 13.1404C14.9266 13.1507 14.9765 13.1575 15.0249 13.1685C15.2222 13.2115 15.4172 13.2627 15.6079 13.3228C16.0369 13.4587 16.5191 13.2839 16.6848 12.9315C16.7356 12.8236 16.7523 12.7075 16.7332 12.5934C16.6815 12.2718 16.6574 11.9473 16.6607 11.6229C16.659 11.3579 16.6765 11.0929 16.714 10.83C16.7707 10.3819 16.8756 9.93862 17.0272 9.50564C17.2063 8.99883 17.4537 8.5098 17.7643 8.04743C17.7702 8.03854 17.7759 8.02966 17.781 8.02077C17.7861 8.01188 17.801 7.9921 17.8102 7.97705C18.2008 7.38487 18.6922 6.84123 19.2711 6.36381C20.9928 4.91657 23.3566 4.10306 25.8229 4.10995C26.1003 4.10995 26.3768 4.12292 26.6442 4.1407C26.8833 4.15984 27.1157 4.1837 27.3463 4.22062L27.3938 4.22678C27.5512 4.2432 27.7079 4.2657 27.8627 4.29509C32.0191 5.09146 34.9659 8.12327 34.985 11.623C34.985 11.7705 34.9767 11.9181 34.9692 12.0648C34.9492 12.4418 35.3057 12.7601 35.7655 12.7765C35.8738 12.7806 35.9821 12.767 36.0837 12.7368C37.0673 12.4486 38.1051 12.3031 39.1496 12.3059C44.2096 12.2991 48.3185 15.6566 48.3276 19.8058C48.336 23.724 44.6695 26.99 39.906 27.307Z" fill="white"/>
<path d="M24.9901 40.9913C22.2314 40.9892 19.995 39.1553 19.9926 36.8933C19.9926 34.8272 23.8956 30.7744 24.3404 30.3195C24.6519 30.0251 25.1949 29.9937 25.5539 30.2491C25.5848 30.2709 25.6131 30.2941 25.6398 30.3195C26.0846 30.7743 29.9876 34.8272 29.9876 36.8933C29.9851 39.1554 27.7487 40.9886 24.9901 40.9913ZM24.9901 31.863C23.4975 33.4974 21.6584 35.8545 21.6584 36.8933C21.6584 38.4021 23.1501 39.6253 24.9901 39.6253C26.83 39.6253 28.3218 38.4021 28.3218 36.8933C28.3218 35.8545 26.4826 33.4975 24.9901 31.863Z" fill="white"/>
<path d="M13.3291 40.9913C10.5704 40.9892 8.33398 39.1553 8.33154 36.8933C8.33154 34.8272 12.2346 30.7744 12.6794 30.3195C12.9909 30.0251 13.5339 29.9937 13.8929 30.2491C13.9238 30.2709 13.9521 30.2941 13.9788 30.3195C14.4236 30.7743 18.3266 34.8272 18.3266 36.8933C18.3241 39.1554 16.0877 40.9886 13.3291 40.9913ZM13.3291 31.863C11.8365 33.4974 9.99735 35.8545 9.99735 36.8933C9.99735 38.4021 11.4891 39.6253 13.3291 39.6253C15.169 39.6253 16.6608 38.4021 16.6608 36.8933C16.6608 35.8545 14.8216 33.4975 13.3291 31.863Z" fill="white"/>
<path d="M36.651 40.9913C33.8923 40.9892 31.6559 39.1553 31.6534 36.8933C31.6534 34.8272 35.5565 30.7744 36.0013 30.3195C36.3128 30.0251 36.8558 29.9937 37.2148 30.2491C37.2457 30.2709 37.274 30.2941 37.3007 30.3195C37.7455 30.7743 41.6485 34.8272 41.6485 36.8933C41.646 39.1554 39.4096 40.9886 36.651 40.9913ZM36.651 31.863C35.1584 33.4974 33.3192 35.8545 33.3192 36.8933C33.3192 38.4021 34.811 39.6253 36.651 39.6253C38.4909 39.6253 39.9827 38.4021 39.9827 36.8933C39.9827 35.8545 38.1435 33.4975 36.651 31.863Z" fill="white"/>
</svg>
