<svg width="200" height="187" viewBox="0 0 200 187" fill="none" xmlns="http://www.w3.org/2000/svg">
<path d="M181.25 58.4375C173.706 58.4375 167.394 63.466 165.941 70.125H135.938L140.625 64.2812C144.656 59.2527 146.875 53.0262 146.875 46.75C146.875 30.6388 132.856 17.5312 115.625 17.5312C98.3938 17.5312 84.375 30.6388 84.375 46.75C84.375 53.0262 86.5938 59.2527 90.625 64.2812L95.3125 70.125H34.0594C32.6063 63.466 26.2938 58.4375 18.75 58.4375C10.1344 58.4375 3.125 64.9913 3.125 73.0469V154.859C3.125 162.915 10.1344 169.469 18.75 169.469H181.25C189.866 169.469 196.875 162.915 196.875 154.859V73.0469C196.875 64.9913 189.866 58.4375 181.25 58.4375ZM165.625 140.25H153.125V128.562H165.625V140.25ZM165.625 122.719H153.125C149.678 122.719 146.875 125.34 146.875 128.562V140.25C146.875 143.473 149.678 146.094 153.125 146.094H165.625V151.938H153.125C149.678 151.938 146.875 154.558 146.875 157.781V163.625H140.625V131.484C140.625 126.652 136.419 122.719 131.25 122.719H103.125C97.9563 122.719 93.75 126.652 93.75 131.484V163.625H87.5V125.641C87.5 124.025 86.1031 122.719 84.375 122.719H62.5C60.7719 122.719 59.375 124.025 59.375 125.641V127.946C59.375 140.642 55.5094 152.931 48.2563 163.625H40.4C48.7094 152.408 53.125 139.306 53.125 125.641C53.125 124.025 51.7281 122.719 50 122.719H34.375V116.875H43.75C48.9188 116.875 53.125 112.942 53.125 108.109V99.8171C53.125 97.2984 54.8438 95.072 57.4 94.2743L72.7 89.5058C77.8125 87.9105 81.25 83.4546 81.25 78.4173V75.9688H87.5V80.8658C87.5 87.1625 83.2062 92.7345 76.8156 94.7243L63.65 98.8266C61.0938 99.6243 59.375 101.851 59.375 104.372V108.109C59.375 112.942 63.5812 116.875 68.75 116.875H131.25C136.419 116.875 140.625 112.942 140.625 108.109V75.9688H146.875V108.109C146.875 112.942 151.081 116.875 156.25 116.875H165.625V122.719ZM134.375 163.625H100V131.484C100 129.871 101.4 128.562 103.125 128.562H131.25C132.975 128.562 134.375 129.871 134.375 131.484V163.625ZM81.25 163.625H55.5875C62.0625 152.931 65.5125 140.928 65.6219 128.562H81.25V163.625ZM34.375 111.031V75.9688H75V78.4173C75 80.9359 73.2812 83.1624 70.725 83.9601L55.425 88.7286C50.3125 90.3239 46.875 94.7798 46.875 99.8171V108.109C46.875 109.722 45.475 111.031 43.75 111.031H34.375ZM165.625 111.031H156.25C154.525 111.031 153.125 109.722 153.125 108.109V75.9688H165.625V111.031ZM115.625 23.375C129.409 23.375 140.625 33.8616 140.625 46.75C140.625 51.7727 138.85 56.7545 135.625 60.7779L115.625 85.7074L95.625 60.7779C92.4 56.7545 90.625 51.7727 90.625 46.75C90.625 33.8616 101.841 23.375 115.625 23.375ZM125 90.5781C125 93.7454 120.706 96.4219 115.625 96.4219C110.544 96.4219 106.25 93.7454 106.25 90.5781C106.25 89.1756 107.153 87.8199 108.653 86.7563L113.125 92.3313C113.713 93.0676 114.641 93.5 115.625 93.5C116.609 93.5 117.534 93.0676 118.125 92.3313L122.597 86.7563C124.097 87.8199 125 89.1756 125 90.5781ZM104.891 82.0638C101.809 84.2347 100 87.2939 100 90.5781C100 97.0238 107.009 102.266 115.625 102.266C124.241 102.266 131.25 97.0238 131.25 90.5781C131.25 87.2939 129.441 84.2347 126.359 82.0638L131.25 75.9688H134.375V108.109C134.375 109.722 132.975 111.031 131.25 111.031H68.75C67.025 111.031 65.625 109.722 65.625 108.109V104.372L78.7938 100.267C87.7375 97.4796 93.75 89.6811 93.75 80.8658V75.9688H100L104.891 82.0638ZM9.375 73.0469C9.375 68.2141 13.5813 64.2812 18.75 64.2812C23.9188 64.2812 28.125 68.2141 28.125 73.0469V143.178C25.5125 141.34 22.2656 140.25 18.75 140.25C15.2344 140.25 11.9875 141.34 9.375 143.178V73.0469ZM9.375 154.859C9.375 150.027 13.5813 146.094 18.75 146.094C23.9188 146.094 28.125 150.027 28.125 154.859C28.125 156.475 29.5219 157.781 31.25 157.781C32.9781 157.781 34.375 156.475 34.375 154.859V128.562H46.8031C46.2125 140.27 42.0719 151.441 34.7469 161.039L32.7687 163.625H18.75C13.5813 163.625 9.375 159.692 9.375 154.859ZM181.25 163.625H153.125V157.781H168.75C170.478 157.781 171.875 156.475 171.875 154.859C171.875 150.027 176.081 146.094 181.25 146.094C186.419 146.094 190.625 150.027 190.625 154.859C190.625 159.692 186.419 163.625 181.25 163.625ZM190.625 143.178C188.012 141.34 184.766 140.25 181.25 140.25C177.734 140.25 174.488 141.34 171.875 143.178V73.0469C171.875 68.2141 176.081 64.2812 181.25 64.2812C186.419 64.2812 190.625 68.2141 190.625 73.0469V143.178Z" fill="#7B9CFF"/>
<path d="M115.625 58.4375C124.241 58.4375 131.25 51.8837 131.25 43.8281C131.25 35.7725 124.241 29.2188 115.625 29.2188C107.009 29.2188 100 35.7725 100 43.8281C100 51.8837 107.009 58.4375 115.625 58.4375ZM115.625 35.0625C120.794 35.0625 125 38.9953 125 43.8281C125 48.6609 120.794 52.5938 115.625 52.5938C110.456 52.5938 106.25 48.6609 106.25 43.8281C106.25 38.9953 110.456 35.0625 115.625 35.0625Z" fill="#7B9CFF"/>
</svg>
