<svg width="63" height="51" viewBox="0 0 63 51" fill="none" xmlns="http://www.w3.org/2000/svg">
<g clip-path="url(#clip0)">
<path d="M38.3186 7.66101V35.1474C35.0384 36.0866 33.3196 39.0005 34.4788 41.6559C35.639 44.3113 39.2385 45.7027 42.5187 44.7643C45.7989 43.8259 47.5177 40.9112 46.3585 38.2558C45.7243 36.8032 44.3131 35.6608 42.5187 35.1474V7.64996L38.3186 7.66101Z" fill="#7B9CFF"/>
<path d="M40.4187 51C32.8798 51.0051 26.7635 46.0615 26.7582 39.9585C26.754 36.1811 29.1343 32.6638 33.0686 30.6332V5.94997C33.0729 2.66565 36.3615 0.00338672 40.4187 0C44.476 0.00338672 47.7645 2.66565 47.7687 5.94997V8.49997H45.6686V5.94997C45.6634 3.60486 43.3156 1.70422 40.4186 1.69993C37.5206 1.70252 35.1718 3.60397 35.1686 5.94997V31.11C35.1686 31.4134 34.968 31.6939 34.6435 31.8461C29.1195 34.4284 27.2264 40.1464 30.4162 44.6182C33.6061 49.0901 40.6695 50.6226 46.1936 48.0403C51.7176 45.458 53.6107 39.7401 50.4208 35.2682C49.4075 33.847 47.9492 32.6663 46.1936 31.8461C45.8691 31.694 45.6685 31.4135 45.6685 31.11V27.2187H47.7686V30.6331C54.1253 33.9141 55.9922 40.7455 51.9381 45.8914C49.4298 49.0764 45.0849 51.0034 40.4187 51ZM40.4081 45.9C39.8863 45.8991 39.3666 45.8558 38.8552 45.7699C34.8883 45.0737 32.3683 41.9067 33.2282 38.6946C33.7112 36.8883 35.2044 35.3659 37.2686 34.5763V7.66106C37.2686 7.1919 37.739 6.81109 38.3186 6.81109L42.5185 6.80003C42.7999 6.78728 43.074 6.87912 43.263 7.04826C43.4593 7.20803 43.5696 7.42478 43.5685 7.6501V34.5773C47.234 35.9892 48.7922 39.5387 47.0481 42.5061C45.8293 44.58 43.2452 45.9009 40.4081 45.9ZM39.3686 8.50853V35.1476C39.3686 35.5096 39.0851 35.831 38.6631 35.9499C35.931 36.7353 34.503 39.1655 35.4732 41.3771C36.078 42.7567 37.5186 43.7869 39.2836 44.1039C40.8482 44.3777 42.4809 44.0631 43.7251 43.2488C45.9753 41.7741 46.3228 39.1025 44.5011 37.2809C43.8921 36.6715 43.0856 36.2108 42.1733 35.9498C41.7512 35.8308 41.4687 35.5087 41.4687 35.1475V8.49997L39.3686 8.50853Z" fill="white"/>
<path d="M17.3186 8.49992C15.5787 8.49992 14.1686 7.35839 14.1686 5.94992C14.1686 4.54144 15.5787 3.39991 17.3186 3.39991C19.0585 3.39991 20.4686 4.54144 20.4686 5.94992C20.4686 7.35839 19.0585 8.49992 17.3186 8.49992ZM17.3186 5.09995C16.739 5.09995 16.2686 5.48076 16.2686 5.94992C16.2686 6.41908 16.739 6.79988 17.3186 6.79988C17.8981 6.79988 18.3685 6.41908 18.3685 5.94992C18.3685 5.48076 17.8983 5.09995 17.3186 5.09995Z" fill="#7B9CFF"/>
<path d="M20.4686 18.7C14.0899 18.7 8.91858 14.5137 8.91858 9.34993C8.91858 4.18618 14.0899 0 20.4686 0C26.8474 0 32.0187 4.18628 32.0187 9.35003C32.0113 14.5112 26.8443 18.6941 20.4686 18.7ZM20.4686 1.70003C15.2491 1.70003 11.0186 5.1247 11.0186 9.35003C11.0186 13.5754 15.2491 17 20.4686 17C25.6881 17 29.9186 13.5754 29.9186 9.35003C29.9123 5.12719 25.6851 1.70511 20.4686 1.70003Z" fill="white"/>
<path d="M23.6187 15.3C20.7195 15.2974 18.3707 13.3926 18.3739 11.0458C18.3771 8.69899 20.7301 6.79745 23.6291 6.80004C24.5468 6.80094 25.4487 6.99637 26.2436 7.36702C26.7465 7.6016 26.9188 8.12186 26.6279 8.52816C26.3381 8.93527 25.6954 9.07472 25.1935 8.83924C23.6857 8.1363 21.76 8.55615 20.8917 9.77677C20.0233 10.9974 20.542 12.5563 22.0498 13.2592C23.0231 13.7122 24.2201 13.7122 25.1924 13.2592C25.6922 13.022 26.3359 13.1581 26.6289 13.5626C26.9219 13.9671 26.7538 14.4883 26.2541 14.7255C26.2499 14.7272 26.2457 14.7288 26.2425 14.7314C25.4457 15.1054 24.5406 15.3009 23.6187 15.3Z" fill="#7B9CFF"/>
<path d="M49.8685 10.2H45.6686V11.9H49.8685V10.2Z" fill="white"/>
<path d="M49.8685 13.5999H45.6686V15.2999H49.8685V13.5999Z" fill="white"/>
<path d="M49.8685 17H45.6686V18.7001H49.8685V17Z" fill="white"/>
<path d="M49.8685 20.4H45.6686V22.1H49.8685V20.4Z" fill="white"/>
<path d="M49.8685 23.8H45.6686V25.5H49.8685V23.8Z" fill="white"/>
</g>
<defs>
<clipPath id="clip0">
<rect width="63" height="51" fill="white"/>
</clipPath>
</defs>
</svg>
