<svg width="40" height="31" viewBox="0 0 40 31" fill="none" xmlns="http://www.w3.org/2000/svg">
<g clip-path="url(#clip0)">
<path d="M32.8967 10.2873C32.8967 4.60579 26.9136 0 19.5331 0C12.1527 0 6.16961 4.60579 6.16961 10.2873C4.2616 10.4702 2.45752 11.4304 2.45752 13.6593V19.0316C2.45752 21.5462 4.74417 22.4607 6.91203 22.4607H9.06504C9.47504 22.4607 9.80746 22.2048 9.80746 21.8891V10.8246C9.80746 10.5089 9.47504 10.253 9.06504 10.253H7.65445C7.65445 5.20282 12.9728 1.10875 19.5331 1.10875C26.0935 1.10875 31.4118 5.20282 31.4118 10.253H30.0012C29.5912 10.253 29.2588 10.5089 29.2588 10.8246V21.872C29.2588 22.1876 29.5912 22.4435 30.0012 22.4435H31.4118C31.2039 26.3698 28.754 27.29 23.8614 27.4557V27.0728C23.8614 26.4415 23.1967 25.9298 22.3766 25.9298H17.7068C16.8867 25.9298 16.2219 26.4415 16.2219 27.0728V28.9302C16.2219 29.5616 16.8867 30.0733 17.7068 30.0733H22.3914C23.2115 30.0733 23.8763 29.5616 23.8763 28.9302V28.5988C28.5832 28.433 32.6517 27.6843 32.8967 22.4092C34.8047 22.2263 36.6087 21.2662 36.6087 19.0373V13.665C36.6087 11.4246 34.8121 10.4702 32.8967 10.2873ZM8.32262 11.3561V21.3005H6.87491C5.77613 21.3005 3.90523 21.0033 3.90523 19.0144V13.6421C3.90523 11.6704 5.75386 11.3561 6.87491 11.3561H8.32262ZM22.3914 28.0673V28.936H17.7068V27.0785H22.3914V28.0673ZM35.1239 19.0316C35.1239 21.0033 33.2753 21.3176 32.1542 21.3176H30.7436V11.3961H32.1914C33.2901 11.3961 35.161 11.6933 35.161 13.6821L35.1239 19.0316Z" fill="white"/>
</g>
<defs>
<clipPath id="clip0">
<rect width="39.066" height="30.0733" fill="white"/>
</clipPath>
</defs>
</svg>
