<svg xmlns="http://www.w3.org/2000/svg" xmlns:xlink="http://www.w3.org/1999/xlink" version="1.1" x="0px" y="0px" viewBox="0 0 90 112.5" enable-background="new 0 0 90 90" xml:space="preserve"><g><path d="M25.498,32.386h-0.947v-6.651c0-1.527-1.242-2.769-2.77-2.769h-7.867c-1.527,0-2.77,1.242-2.77,2.769v6.651h-0.947   c-0.828,0-1.5,0.671-1.5,1.5v10.132c0,1.856,1.51,3.366,3.366,3.366h3.735v28.331c0,0.829,0.672,1.5,1.5,1.5s1.5-0.671,1.5-1.5   V47.384h4.833c1.856,0,3.366-1.51,3.366-3.366V33.886C26.998,33.058,26.326,32.386,25.498,32.386z M14.144,25.966h7.406v6.42   h-7.406C14.144,32.386,14.144,25.966,14.144,25.966z M23.998,44.018c0,0.202-0.164,0.366-0.366,0.366H12.063   c-0.202,0-0.366-0.164-0.366-0.366v-8.632h12.301V44.018z"/><path d="M76.542,45.431H55.037v-5.508c0-0.829-0.672-1.5-1.5-1.5H40.453c-0.828,0-1.5,0.671-1.5,1.5v5.508h-2.074   c-2.563,0-4.648,2.085-4.648,4.649v22.485c0,2.563,2.085,4.649,4.648,4.649h39.663c2.563,0,4.649-2.086,4.649-4.649V50.08   C81.191,47.516,79.105,45.431,76.542,45.431z M41.953,41.423h10.084v4.008H41.953V41.423z M78.191,72.565   c0,0.91-0.74,1.649-1.649,1.649H36.879c-0.909,0-1.648-0.74-1.648-1.649V50.08c0-0.909,0.739-1.649,1.648-1.649h39.663   c0.909,0,1.649,0.74,1.649,1.649V72.565z"/><path d="M66.271,52.045c-5.452,0-9.888,4.436-9.888,9.888s4.436,9.888,9.888,9.888s9.888-4.436,9.888-9.888   S71.723,52.045,66.271,52.045z M66.271,68.821c-3.798,0-6.888-3.09-6.888-6.888c0-3.798,3.09-6.888,6.888-6.888   c3.798,0,6.888,3.09,6.888,6.888C73.159,65.731,70.069,68.821,66.271,68.821z"/><path d="M50.92,51.711H39.232c-0.828,0-1.5,0.671-1.5,1.5v3.664c0,0.829,0.672,1.5,1.5,1.5H50.92c0.828,0,1.5-0.671,1.5-1.5v-3.664   C52.42,52.382,51.748,51.711,50.92,51.711z M49.42,55.374h-8.688V54.71h8.688V55.374z"/><path d="M79.681,19.345c0.828,0,1.5-0.671,1.5-1.5v-6.978c0-0.829-0.672-1.5-1.5-1.5H30.662c-0.318,0-0.612,0.1-0.854,0.269   c-0.065,0.017-0.131,0.031-0.196,0.058l-8.009,3.273c-0.564,0.23-0.933,0.779-0.933,1.389s0.368,1.158,0.933,1.389l8.009,3.273   c0.065,0.026,0.131,0.042,0.197,0.059c0.242,0.168,0.535,0.268,0.853,0.268C30.662,19.345,79.681,19.345,79.681,19.345z    M78.181,16.345h-2.582v-3.978h2.582V16.345z M32.162,12.368h40.437v3.978H32.162V12.368z M29.162,13.12v2.474l-3.026-1.237   L29.162,13.12z"/></g><text x="0" y="105" fill="#000000" font-size="5px" font-weight="bold" font-family="'Helvetica Neue', Helvetica, Arial-Unicode, Arial, Sans-serif">Created by Christian Wad</text><text x="0" y="110" fill="#000000" font-size="5px" font-weight="bold" font-family="'Helvetica Neue', Helvetica, Arial-Unicode, Arial, Sans-serif">from the Noun Project</text></svg>