<svg xmlns="http://www.w3.org/2000/svg" xmlns:xlink="http://www.w3.org/1999/xlink" version="1.1" x="0px" y="0px" viewBox="0 0 100 125" enable-background="new 0 0 100 100" xml:space="preserve"><g><path d="M50.003,74.526c-11.154,0-20.228-9.071-20.228-20.225s9.074-20.227,20.228-20.227c11.151,0,20.226,9.073,20.226,20.227   S61.154,74.526,50.003,74.526L50.003,74.526z M50.003,39.592c-8.112,0-14.711,6.6-14.711,14.71c0,8.109,6.599,14.708,14.711,14.708   c8.109,0,14.709-6.599,14.709-14.708C64.71,46.191,58.112,39.592,50.003,39.592L50.003,39.592z"/><path d="M87.453,21.155H38.767v-3.499c0-2.815-2.289-5.103-5.103-5.103H17.281c-2.813,0-5.104,2.287-5.104,5.103v3.519   c-5.66,0.2-10.205,4.854-10.205,10.558v45.136c0,5.833,4.746,10.578,10.578,10.578h74.9c5.834,0,10.578-4.745,10.578-10.578V31.732   C98.03,25.902,93.284,21.155,87.453,21.155z M92.512,76.868c0,2.791-2.27,5.062-5.062,5.062h-74.9c-2.79,0-5.06-2.27-5.06-5.062   V31.732c0-2.789,2.27-5.061,5.06-5.061h1.546c0,0,3.598,0.058,3.598-3.596s0-1.382,0-1.382v-3.627h3.596h8.327h3.632l-0.02,3.627   c0,0-0.005-2.271-0.005,1.382c0,3.651,3.588,3.595,3.588,3.595H87.45c2.79,0,5.06,2.271,5.06,5.062v45.136H92.512z"/></g><text x="0" y="115" fill="#000000" font-size="5px" font-weight="bold" font-family="'Helvetica Neue', Helvetica, Arial-Unicode, Arial, Sans-serif">Created by Bucky Clarke</text><text x="0" y="120" fill="#000000" font-size="5px" font-weight="bold" font-family="'Helvetica Neue', Helvetica, Arial-Unicode, Arial, Sans-serif">from the Noun Project</text></svg>