<svg xmlns="http://www.w3.org/2000/svg" viewBox="0 0 30.59 38.2375" x="0px" y="0px"><title>drone</title><g data-name="Layer 2"><g data-name="Layer 1"><path d="M29.7,21l-3.44,3.44a1.45,1.45,0,0,0-1.12,0l-.29-.29a2,2,0,0,0,.33-1.1,2,2,0,0,0-.61-1.46L22.36,19.4a5.83,5.83,0,0,1,0-8.25l2.21-2.21a2,2,0,0,0,.31-2.52l.3-.3a1.38,1.38,0,0,0,.56.12,1.3,1.3,0,0,0,.55-.12l3.45,3.44a.48.48,0,0,0,.7,0,.5.5,0,0,0,0-.71L27,5.41a1.37,1.37,0,0,0-1.82-1.82L21.74.15a.5.5,0,0,0-.71,0,.48.48,0,0,0,0,.7L24.47,4.3a1.43,1.43,0,0,0,0,1.11l-.3.3A2.05,2.05,0,0,0,21.65,6L19.44,8.23a5.84,5.84,0,0,1-8.25,0L9,6a2,2,0,0,0-2.56-.28l-.29-.29a1.45,1.45,0,0,0,0-1.12L9.56.89a.51.51,0,0,0,0-.71.51.51,0,0,0-.71,0L5.41,3.63a1.37,1.37,0,0,0-1.54.28,1.39,1.39,0,0,0-.41,1,1.32,1.32,0,0,0,.13.56L.15,8.89a.5.5,0,0,0,0,.71.46.46,0,0,0,.35.14A.46.46,0,0,0,.85,9.6L4.3,6.16a1.47,1.47,0,0,0,.55.12,1.56,1.56,0,0,0,.56-.12l.31.31a2.06,2.06,0,0,0,.33,2.47l2.22,2.21a5.83,5.83,0,0,1,0,8.25L6.05,21.62a2,2,0,0,0-.6,1.46,2.07,2.07,0,0,0,.3,1.06l-.3.3a1.37,1.37,0,0,0-1.12,0L.89,21a.51.51,0,0,0-.71,0,.51.51,0,0,0,0,.71l3.45,3.44a1.37,1.37,0,0,0,.28,1.54A1.34,1.34,0,0,0,5.45,27l3.44,3.45a.52.52,0,0,0,.71,0,.51.51,0,0,0,0-.71L6.16,26.26a1.45,1.45,0,0,0,0-1.12l.29-.3A2.05,2.05,0,0,0,9,24.54l2.22-2.22a5.83,5.83,0,0,1,8.25,0l2.21,2.22a2.07,2.07,0,0,0,2.47.33l.31.31a1.48,1.48,0,0,0-.12.56,1.56,1.56,0,0,0,.12.56L21,29.74a.5.5,0,0,0,0,.7.51.51,0,0,0,.36.15.5.5,0,0,0,.35-.15L25.14,27a1.38,1.38,0,0,0,1.95-1.26,1.48,1.48,0,0,0-.12-.56l3.44-3.44A.5.5,0,1,0,29.7,21ZM26,4.58a.38.38,0,0,1,0,.55.39.39,0,1,1-.55-.55h0A.39.39,0,0,1,26,4.58ZM4.58,5.17h0a.38.38,0,0,1-.12-.28.41.41,0,0,1,.39-.39.43.43,0,0,1,.28.11.4.4,0,0,1,0,.56A.39.39,0,0,1,4.58,5.17ZM4.62,26a.39.39,0,0,1,0-.56.39.39,0,0,1,.55.55A.38.38,0,0,1,4.62,26Zm17.74-2.15-2.21-2.21a6.84,6.84,0,0,0-4.34-2V17a.5.5,0,0,0-.5-.5.5.5,0,0,0-.5.5v2.62a6.81,6.81,0,0,0-4.33,2L8.27,23.83a1.1,1.1,0,0,1-1.51,0,1.07,1.07,0,0,1,0-1.51L9,20.11a6.76,6.76,0,0,0,2-4.33h2.66a.51.51,0,0,0,.5-.5.5.5,0,0,0-.5-.5H11a6.78,6.78,0,0,0-2-4.34L6.76,8.23a1.07,1.07,0,0,1,0-1.51,1.08,1.08,0,0,1,1.51,0l2.21,2.22a6.8,6.8,0,0,0,4.33,2V13.6a.5.5,0,0,0,.5.5.5.5,0,0,0,.5-.5V10.91a6.82,6.82,0,0,0,4.34-2l2.21-2.22a1.1,1.1,0,0,1,1.51,0,1.07,1.07,0,0,1,0,1.51l-2.22,2.21a6.77,6.77,0,0,0-2,4.34H17a.5.5,0,0,0-.5.5.51.51,0,0,0,.5.5h2.66a6.75,6.75,0,0,0,2,4.33l2.22,2.21a1.07,1.07,0,0,1,0,1.51A1.1,1.1,0,0,1,22.36,23.83ZM26,26a.39.39,0,0,1-.55,0h0a.39.39,0,0,1-.11-.27.41.41,0,0,1,.11-.28.43.43,0,0,1,.28-.11.39.39,0,0,1,.27.11.38.38,0,0,1,.12.28A.36.36,0,0,1,26,26Z"/></g></g><text x="0" y="45.59" fill="#000000" font-size="5px" font-weight="bold" font-family="'Helvetica Neue', Helvetica, Arial-Unicode, Arial, Sans-serif">Created by Tim Torres</text><text x="0" y="50.59" fill="#000000" font-size="5px" font-weight="bold" font-family="'Helvetica Neue', Helvetica, Arial-Unicode, Arial, Sans-serif">from the Noun Project</text></svg>