<svg width="44" height="35" viewBox="0 0 44 35" fill="none" xmlns="http://www.w3.org/2000/svg">
<g clip-path="url(#clip0)">
<path d="M42.2213 6.42252L39.8286 14.5248C39.3949 16.0332 37.8355 17.1542 35.9405 17.3201L14.7551 19.062H14.3563L9.02271 6.05792H9.22212L42.2213 6.42252Z" fill="#2A2A2A"/>
<path d="M32.8998 33.6461C34.8269 33.6461 36.3891 32.3764 36.3891 30.8103C36.3891 29.2442 34.8269 27.9745 32.8998 27.9745C30.9727 27.9745 29.4105 29.2442 29.4105 30.8103C29.4105 32.3764 30.9727 33.6461 32.8998 33.6461Z" fill="#7B9CFF"/>
<path d="M13.9576 33.6461C15.8847 33.6461 17.4469 32.3764 17.4469 30.8103C17.4469 29.2442 15.8847 27.9745 13.9576 27.9745C12.0305 27.9745 10.4683 29.2442 10.4683 30.8103C10.4683 32.3764 12.0305 33.6461 13.9576 33.6461Z" fill="#7B9CFF"/>
<path d="M13.9577 34.4565C11.48 34.4565 9.47144 32.8241 9.47144 30.8105C9.47144 28.7968 11.48 27.1645 13.9577 27.1645C16.4354 27.1645 18.444 28.7969 18.444 30.8105C18.4441 32.8241 16.4355 34.4565 13.9577 34.4565ZM13.9577 28.7849C12.5812 28.7849 11.4654 29.6917 11.4654 30.8104C11.4654 31.9291 12.5812 32.8359 13.9577 32.8359C15.3342 32.8359 16.45 31.9291 16.45 30.8104C16.4501 29.6918 15.3343 28.7849 13.9577 28.7849Z" fill="white"/>
<path d="M32.8998 34.4565C30.4221 34.4565 28.4136 32.8241 28.4136 30.8105C28.4136 28.7968 30.4222 27.1645 32.8998 27.1645C35.3776 27.1645 37.3861 28.7969 37.3861 30.8105C37.3861 32.8241 35.3776 34.4565 32.8998 34.4565ZM32.8998 28.7849C31.5233 28.7849 30.4075 29.6917 30.4075 30.8104C30.4075 31.9291 31.5233 32.8359 32.8998 32.8359C34.2764 32.8359 35.3922 31.9291 35.3922 30.8104C35.3923 29.6918 34.2764 28.7849 32.8998 28.7849Z" fill="white"/>
<path d="M43.0189 5.89598C42.8113 5.71167 42.5273 5.59628 42.2214 5.57186L9.77047 5.20726L8.87322 2.97912C8.24111 1.48963 6.52485 0.484079 4.58627 0.467407H1.24647C0.695848 0.467407 0.249512 0.830222 0.249512 1.27763C0.249512 1.72505 0.695848 2.08786 1.24647 2.08786H4.58627C5.67024 2.10732 6.62474 2.67299 6.97901 3.50578L13.3097 19.0216L12.8112 19.9533C12.2553 21.1185 12.4223 22.4298 13.2599 23.4778C14.0895 24.5071 15.4852 25.1423 16.9985 25.1793H36.3893C36.94 25.1793 37.3863 24.8165 37.3863 24.3691C37.3863 23.9216 36.94 23.5588 36.3893 23.5588H16.9984C16.1487 23.5276 15.3693 23.1657 14.9048 22.5865C14.4576 22.0042 14.3656 21.2868 14.6556 20.642L15.0544 19.9128L36.0403 18.1303C38.3455 17.9239 40.2417 16.5614 40.7759 14.7273L43.1686 6.58455C43.2764 6.35006 43.2192 6.08634 43.0189 5.89598ZM38.8318 14.3628C38.5081 15.5434 37.2748 16.4143 35.7911 16.5099L15.0544 18.2518L10.4185 6.82771L40.9752 7.19231L38.8318 14.3628Z" fill="white"/>
</g>
<defs>
<clipPath id="clip0">
<rect width="42.9726" height="34.9238" fill="white" transform="translate(0.249512)"/>
</clipPath>
</defs>
</svg>
