<?xml version="1.0" encoding="iso-8859-1"?>
<!-- Generator: Adobe Illustrator 19.0.0, SVG Export Plug-In . SVG Version: 6.00 Build 0)  -->
<svg version="1.1" id="Capa_1" xmlns="http://www.w3.org/2000/svg" xmlns:xlink="http://www.w3.org/1999/xlink" x="0px" y="0px"
	 viewBox="0 0 512 512" style="enable-background:new 0 0 512 512;" xml:space="preserve">
<path style="fill:#006DF0;" d="M311.415,76.911v275.942c-26.658,9.429-40.627,38.682-31.206,65.34
	c9.429,26.658,38.682,40.627,65.34,31.206s40.627-38.682,31.206-65.34c-5.154-14.583-16.623-26.052-31.206-31.206V76.8
	L311.415,76.911z"/>
<path style="fill:#231F20;" d="M328.482,512c-61.269,0.051-110.976-49.579-111.019-110.848
	c-0.034-37.922,19.311-73.233,51.285-93.619V59.733C268.783,26.761,295.509,0.034,328.482,0
	c32.973,0.034,59.699,26.761,59.733,59.733v25.6h-17.067v-25.6c-0.043-23.543-19.123-42.624-42.667-42.667
	c-23.552,0.026-42.641,19.115-42.667,42.667V312.32c0,3.046-1.63,5.862-4.267,7.39c-44.894,25.924-60.279,83.328-34.355,128.222
	s83.328,60.279,128.222,34.355c44.894-25.924,60.279-83.328,34.355-128.222c-8.235-14.268-20.087-26.121-34.355-34.355
	c-2.637-1.527-4.267-4.343-4.267-7.39v-39.066h17.067v34.278c51.661,32.939,66.833,101.521,33.886,153.182
	C401.715,492.689,366.404,512.034,328.482,512z M328.396,460.8c-4.241-0.009-8.465-0.444-12.621-1.306
	c-32.239-6.989-52.719-38.784-45.73-71.031c3.925-18.133,16.06-33.417,32.836-41.344V76.911c0-4.71,3.823-8.533,8.533-8.533
	l34.133-0.111c2.287-0.128,4.514,0.794,6.05,2.492c1.596,1.604,2.492,3.78,2.483,6.042v270.328
	c29.79,14.174,42.453,49.809,28.279,79.599C372.454,447.548,351.453,460.809,328.396,460.8z M319.948,85.419v267.435
	c0,3.635-2.304,6.861-5.734,8.055c-22.204,7.885-33.809,32.282-25.924,54.485c4.915,13.85,16.623,24.192,30.967,27.375
	c12.715,2.748,25.984-0.41,36.096-8.585c18.287-14.805,21.111-41.626,6.306-59.913c-4.949-6.118-11.503-10.743-18.918-13.363
	c-3.43-1.195-5.726-4.429-5.726-8.055V85.333L319.948,85.419z"/>
<path style="fill:#006DF0;" d="M140.748,85.333c-14.14,0-25.6-11.46-25.6-25.6s11.46-25.6,25.6-25.6c14.14,0,25.6,11.46,25.6,25.6
	S154.888,85.333,140.748,85.333z M140.748,51.2c-4.71,0-8.533,3.823-8.533,8.533s3.823,8.533,8.533,8.533
	c4.71,0,8.533-3.823,8.533-8.533S145.459,51.2,140.748,51.2z"/>
<path style="fill:#231F20;" d="M166.348,187.733c-51.84,0-93.867-42.027-93.867-93.867S114.508,0,166.348,0
	s93.867,42.027,93.867,93.867C260.155,145.681,218.163,187.674,166.348,187.733z M166.348,17.067c-42.419,0-76.8,34.381-76.8,76.8
	s34.381,76.8,76.8,76.8s76.8-34.381,76.8-76.8C243.097,51.473,208.742,17.118,166.348,17.067z"/>
<path style="fill:#006DF0;" d="M191.948,153.6c-23.561-0.026-42.65-19.149-42.624-42.709s19.149-42.65,42.709-42.624
	c7.458,0.009,14.788,1.971,21.248,5.692c4.087,2.355,5.487,7.578,3.123,11.657c-2.355,4.087-7.578,5.487-11.657,3.123
	c-12.254-7.057-27.904-2.842-34.961,9.412s-2.842,27.904,9.412,34.961c7.91,4.548,17.638,4.548,25.54,0
	c4.062-2.381,9.293-1.015,11.674,3.046s1.015,9.293-3.046,11.674c-0.034,0.017-0.068,0.034-0.094,0.06
	C206.796,151.646,199.441,153.609,191.948,153.6z"/>
<g>
	<rect x="371.148" y="102.4" style="fill:#231F20;" width="34.133" height="17.067"/>
	<rect x="371.148" y="136.533" style="fill:#231F20;" width="34.133" height="17.067"/>
	<rect x="371.148" y="170.667" style="fill:#231F20;" width="34.133" height="17.067"/>
	<rect x="371.148" y="204.8" style="fill:#231F20;" width="34.133" height="17.067"/>
	<rect x="371.148" y="238.933" style="fill:#231F20;" width="34.133" height="17.067"/>
</g>
<g>
</g>
<g>
</g>
<g>
</g>
<g>
</g>
<g>
</g>
<g>
</g>
<g>
</g>
<g>
</g>
<g>
</g>
<g>
</g>
<g>
</g>
<g>
</g>
<g>
</g>
<g>
</g>
<g>
</g>
</svg>
