<svg width="47" height="36" viewBox="0 0 47 36" fill="none" xmlns="http://www.w3.org/2000/svg">
<path d="M23.5 0C10.5421 0 0 8.0748 0 18C0 22.347 2.02257 26.3388 5.38463 29.4528C5.39325 29.4618 5.39403 29.4732 5.40343 29.4816C7.83098 31.7238 10.8797 33.4428 14.277 34.5534C14.3162 34.566 14.3546 34.5798 14.3938 34.5924C14.6687 34.6812 14.9468 34.7634 15.2257 34.8438C15.3353 34.8756 15.445 34.908 15.5562 34.9386C15.7967 35.0046 16.0387 35.067 16.2824 35.127C16.4382 35.1654 16.5941 35.2032 16.7516 35.2392C16.967 35.2884 17.1832 35.3358 17.401 35.3808C17.5921 35.4204 17.7848 35.457 17.9775 35.4924C18.1726 35.5284 18.3684 35.5644 18.565 35.5962C18.7843 35.6322 19.006 35.664 19.2285 35.6952C19.4071 35.7204 19.5849 35.7468 19.7651 35.769C20.0118 35.7996 20.2601 35.8236 20.5092 35.8482C20.6698 35.8638 20.8296 35.8818 20.991 35.895C21.273 35.9178 21.5573 35.934 21.8425 35.949C21.9749 35.9562 22.1065 35.967 22.2396 35.9724C22.6556 35.9904 23.0762 36 23.5 36C23.9238 36 24.3444 35.9904 24.762 35.9736C24.8951 35.9682 25.0267 35.9574 25.1591 35.9502C25.4442 35.9346 25.7286 35.919 26.0106 35.8962C26.172 35.883 26.3318 35.865 26.4923 35.8494C26.7414 35.8248 26.9898 35.8008 27.2365 35.7702C27.4159 35.748 27.5945 35.7216 27.7731 35.6964C27.9948 35.6652 28.2164 35.6334 28.4366 35.5974C28.6332 35.565 28.8282 35.5296 29.0241 35.4936C29.2168 35.4576 29.4095 35.421 29.6006 35.382C29.8184 35.3376 30.0346 35.2896 30.25 35.2404C30.4074 35.2044 30.5633 35.1666 30.7192 35.1282C30.9628 35.0682 31.2049 35.0058 31.4454 34.9398C31.5558 34.9092 31.6655 34.8768 31.7759 34.845C32.0556 34.7646 32.3329 34.6818 32.6078 34.5936C32.647 34.581 32.6854 34.5672 32.7245 34.5546C36.1211 33.444 39.1706 31.725 41.5981 29.4828C41.6075 29.4744 41.6083 29.4624 41.6169 29.454C44.9774 26.3388 47 22.347 47 18C47 8.0748 36.4579 0 23.5 0ZM33.023 33.132C33.0112 33.1362 33.0003 33.141 32.9885 33.1452C32.7089 33.2484 32.4245 33.3456 32.1378 33.4404C32.0728 33.4614 32.0086 33.483 31.9436 33.504C31.6929 33.5844 31.4391 33.6606 31.1837 33.7338C31.0772 33.7644 30.9707 33.7944 30.8633 33.8232C30.637 33.885 30.4098 33.9444 30.1803 34.0008C30.0377 34.0356 29.8944 34.0686 29.751 34.101C29.5473 34.1478 29.3429 34.1928 29.1361 34.2348C28.9622 34.2702 28.7867 34.3026 28.6113 34.3344C28.4272 34.368 28.2439 34.4022 28.0582 34.4322C27.8553 34.4652 27.6509 34.4934 27.4472 34.5216C27.2819 34.545 27.1174 34.5696 26.9506 34.59C26.7211 34.6176 26.4892 34.6398 26.2581 34.662C26.1116 34.6764 25.9659 34.6932 25.8179 34.7052C25.5539 34.7268 25.2876 34.7406 25.022 34.755C24.9037 34.761 24.7862 34.7712 24.6664 34.776C24.2786 34.7916 23.8901 34.8 23.5 34.8C23.1099 34.8 22.7214 34.7916 22.3344 34.776C22.2153 34.7712 22.0978 34.7616 21.9788 34.755C21.7124 34.7412 21.4469 34.7268 21.1829 34.7052C21.0349 34.6932 20.8892 34.6764 20.7427 34.662C20.5116 34.6398 20.2797 34.6176 20.0502 34.59C19.8834 34.5696 19.7189 34.545 19.5536 34.5216C19.3491 34.4934 19.1447 34.4646 18.9426 34.4322C18.7569 34.4022 18.5728 34.368 18.3895 34.3344C18.2141 34.302 18.0386 34.2702 17.8647 34.2348C17.6587 34.1928 17.4535 34.1472 17.2498 34.101C17.1064 34.0686 16.9631 34.0356 16.8205 34.0008C16.591 33.9444 16.3631 33.885 16.1375 33.8232C16.0301 33.7938 15.9236 33.7638 15.8171 33.7338C15.5617 33.6606 15.3079 33.5844 15.0572 33.504C14.9922 33.4836 14.9288 33.462 14.8638 33.441C14.5771 33.3468 14.2927 33.249 14.0123 33.1458C14.0005 33.1416 13.9896 33.1374 13.9778 33.1326C11.2448 32.1198 8.83052 30.6822 6.8714 28.9362C8.38558 24.6654 12.672 21.2226 18.1866 19.8528C18.2955 19.9038 18.4091 19.9494 18.5211 19.9974C18.5869 20.0256 18.652 20.0556 18.7185 20.0826C18.952 20.1774 19.1885 20.2662 19.4306 20.346C19.6162 20.4084 19.8082 20.4612 19.9993 20.5152C20.0369 20.5254 20.0745 20.5368 20.1121 20.547C21.1743 20.835 22.3109 21 23.5 21C24.6891 21 25.8257 20.835 26.8871 20.547C26.9247 20.5368 26.9623 20.5254 26.9999 20.5152C27.1911 20.4612 27.383 20.4084 27.5686 20.346C27.8107 20.2662 28.0473 20.1774 28.2807 20.0826C28.3473 20.055 28.4123 20.0256 28.4781 19.9974C28.5901 19.9494 28.7045 19.9038 28.8141 19.8522C34.3288 21.2226 38.6144 24.6654 40.1294 28.9356C38.1703 30.681 35.756 32.1186 33.023 33.132ZM14.8833 13.2C14.8833 9.561 18.7491 6.6 23.5 6.6C28.2509 6.6 32.1167 9.561 32.1167 13.2C32.1167 15.5148 30.5492 17.5518 28.1875 18.7302C27.8788 18.8838 27.5577 19.0212 27.2279 19.1412C27.1887 19.1556 27.1503 19.1706 27.1112 19.1844C24.8426 19.9746 22.1574 19.9746 19.8888 19.1844C19.8497 19.1706 19.8105 19.1556 19.7721 19.1412C19.4415 19.0212 19.1212 18.8838 18.8125 18.7302C16.4508 17.5518 14.8833 15.5148 14.8833 13.2ZM41.3044 27.7938C39.5286 23.7774 35.4772 20.5314 30.3009 18.9894C32.3713 17.5608 33.6833 15.498 33.6833 13.2C33.6833 8.8992 29.1149 5.4 23.5 5.4C17.8851 5.4 13.3167 8.8992 13.3167 13.2C13.3167 15.498 14.6288 17.5608 16.6999 18.9894C11.5236 20.532 7.47222 23.7774 5.6964 27.7938C3.10122 25.0344 1.56667 21.6528 1.56667 18C1.56667 8.7366 11.4061 1.2 23.5 1.2C35.5939 1.2 45.4333 8.7366 45.4333 18C45.4333 21.6528 43.8988 25.0344 41.3044 27.7938Z" fill="white"/>
</svg>
